G04 #@! TF.FileFunction,Profile,NP*
%FSLAX46Y46*%
G04 Gerber Fmt 4.6, Leading zero omitted, Abs format (unit mm)*
G04 Created by KiCad (PCBNEW 4.0.7-e2-6376~58~ubuntu16.04.1) date Sun Jun  3 17:42:33 2018*
%MOMM*%
%LPD*%
G01*
G04 APERTURE LIST*
%ADD10C,0.100000*%
%ADD11C,0.150000*%
G04 APERTURE END LIST*
D10*
D11*
X190500000Y-315000000D02*
X190500000Y-316500000D01*
X189000000Y-80500000D02*
X189000000Y-83500000D01*
X189000000Y-80500000D02*
G75*
G03X185500000Y-77000000I-3500000J0D01*
G01*
X185500000Y-87000000D02*
G75*
G03X189000000Y-83500000I0J3500000D01*
G01*
X146000000Y-80500000D02*
X146000000Y-83500000D01*
X149500000Y-77000000D02*
G75*
G03X146000000Y-80500000I0J-3500000D01*
G01*
X146000000Y-83500000D02*
G75*
G03X149500000Y-87000000I3500000J0D01*
G01*
X187000000Y-320000000D02*
X170000000Y-320000000D01*
X170000000Y-311500000D02*
X187000000Y-311500000D01*
X166500000Y-315000000D02*
X166500000Y-316500000D01*
X166500000Y-316500000D02*
G75*
G03X170000000Y-320000000I3500000J0D01*
G01*
X170000000Y-311500000D02*
G75*
G03X166500000Y-315000000I0J-3500000D01*
G01*
X187000000Y-320000000D02*
G75*
G03X190500000Y-316500000I0J3500000D01*
G01*
X190500000Y-315000000D02*
G75*
G03X187000000Y-311500000I-3500000J0D01*
G01*
X148000000Y-316000000D02*
X133500000Y-316000000D01*
X133500000Y-309000000D02*
X148000000Y-309000000D01*
X148000000Y-316000000D02*
G75*
G03X148000000Y-309000000I0J3500000D01*
G01*
X133500000Y-308998572D02*
G75*
G03X133500000Y-315998572I0J-3500000D01*
G01*
X156000000Y-40000000D02*
G75*
G03X156000000Y-41000000I0J-500000D01*
G01*
X164000000Y-41000000D02*
G75*
G03X164000000Y-40000000I0J500000D01*
G01*
X156000000Y-41000000D02*
X164000000Y-41000000D01*
X156000000Y-40000000D02*
X164000000Y-40000000D01*
X149500000Y-87000000D02*
X185500000Y-87000000D01*
X185500000Y-77000000D02*
X149500000Y-77000000D01*
X200000000Y-332000000D02*
X120000000Y-332000000D01*
X120000000Y-38000000D02*
X120000000Y-332000000D01*
X200000000Y-38000000D02*
X200000000Y-332000000D01*
X120000000Y-38000000D02*
X200000000Y-38000000D01*
M02*
