G04 #@! TF.FileFunction,Soldermask,Top*
%FSLAX46Y46*%
G04 Gerber Fmt 4.6, Leading zero omitted, Abs format (unit mm)*
G04 Created by KiCad (PCBNEW 4.0.7-e2-6376~58~ubuntu16.04.1) date Sun Jun  3 17:42:33 2018*
%MOMM*%
%LPD*%
G01*
G04 APERTURE LIST*
%ADD10C,0.100000*%
%ADD11R,5.000000X3.000000*%
%ADD12R,0.340000X0.740000*%
%ADD13R,0.340000X1.040000*%
%ADD14C,1.000000*%
%ADD15R,1.200000X1.400000*%
%ADD16R,2.000000X1.400000*%
%ADD17C,3.500000*%
%ADD18R,0.400000X0.600000*%
%ADD19R,0.600000X0.400000*%
%ADD20R,0.500000X0.600000*%
%ADD21R,0.600000X0.500000*%
%ADD22R,2.000000X5.000000*%
%ADD23R,1.490000X0.490000*%
%ADD24R,0.490000X1.490000*%
G04 APERTURE END LIST*
D10*
D11*
X125000000Y-57500000D03*
X155000000Y-57500000D03*
D12*
X159750000Y-312010000D03*
X159250000Y-312010000D03*
X158750000Y-312010000D03*
X158250000Y-312010000D03*
X157750000Y-312010000D03*
X157250000Y-312010000D03*
X156750000Y-312010000D03*
X163250000Y-312010000D03*
X161750000Y-312010000D03*
X162250000Y-312010000D03*
X162750000Y-312010000D03*
X161250000Y-312010000D03*
X160750000Y-312010000D03*
X160250000Y-312010000D03*
D13*
X155960000Y-314660000D03*
X164040000Y-314660000D03*
D11*
X165000000Y-243000000D03*
X195000000Y-243000000D03*
D14*
X154000000Y-321500000D03*
X166000000Y-321500000D03*
X166000000Y-43500000D03*
D15*
X196250000Y-65200000D03*
D16*
X196250000Y-71300000D03*
D11*
X165000000Y-156000000D03*
X195000000Y-156000000D03*
D15*
X128300000Y-324750000D03*
D16*
X128300000Y-330850000D03*
D17*
X197000000Y-328000000D03*
X197000000Y-236000000D03*
X197000000Y-144000000D03*
X197000000Y-42000000D03*
X160000000Y-305000000D03*
X160000000Y-237000000D03*
X160000000Y-144000000D03*
X160000000Y-65000000D03*
X123000000Y-328000000D03*
X123000000Y-236000000D03*
X123000000Y-144000000D03*
X123000000Y-42000000D03*
D18*
X185150000Y-330600000D03*
X184250000Y-330600000D03*
D19*
X184900000Y-329250000D03*
X184900000Y-328350000D03*
X194600000Y-180050000D03*
X194600000Y-179150000D03*
D18*
X196150000Y-180000000D03*
X197050000Y-180000000D03*
D19*
X198250000Y-77600000D03*
X198250000Y-78500000D03*
D18*
X196700000Y-77650000D03*
X195800000Y-77650000D03*
X137450000Y-326500000D03*
X138350000Y-326500000D03*
D19*
X137439998Y-328100000D03*
X137439998Y-329000000D03*
X121200000Y-180250000D03*
X121200000Y-179350000D03*
D18*
X122950000Y-180200000D03*
X123850000Y-180200000D03*
D19*
X125600000Y-77600000D03*
X125600000Y-78500000D03*
D18*
X123850000Y-77600000D03*
X122950000Y-77600000D03*
D20*
X183500000Y-329350000D03*
X183500000Y-328250000D03*
D21*
X196050000Y-178600000D03*
X197150000Y-178600000D03*
X196800000Y-79250000D03*
X195700000Y-79250000D03*
D20*
X138839998Y-328000000D03*
X138839998Y-329100000D03*
D21*
X122850000Y-178600000D03*
X123950000Y-178600000D03*
X123950000Y-79000000D03*
X122850000Y-79000000D03*
D11*
X195000000Y-287000000D03*
X165000000Y-287000000D03*
X195000000Y-200000000D03*
X165000000Y-200000000D03*
X195000000Y-111000000D03*
X165000000Y-111000000D03*
X165000000Y-57500000D03*
X195000000Y-57500000D03*
X155000000Y-287000000D03*
X125000000Y-287000000D03*
X125000000Y-243000000D03*
X155000000Y-243000000D03*
D15*
X192200000Y-324750000D03*
D16*
X192200000Y-330850000D03*
D15*
X196600000Y-192450000D03*
D16*
X196600000Y-186350000D03*
D11*
X155000000Y-111000000D03*
X125000000Y-111000000D03*
X125000000Y-156000000D03*
X155000000Y-156000000D03*
X155000000Y-200000000D03*
X125000000Y-200000000D03*
D15*
X123400000Y-65150000D03*
D16*
X123400000Y-71250000D03*
D22*
X152000000Y-329000000D03*
X168000000Y-329000000D03*
X172000000Y-329000000D03*
D12*
X160250000Y-50160000D03*
X160750000Y-50160000D03*
X161250000Y-50160000D03*
X161750000Y-50160000D03*
X162250000Y-50160000D03*
X162750000Y-50160000D03*
X163250000Y-50160000D03*
X156750000Y-50160000D03*
X158250000Y-50160000D03*
X157750000Y-50160000D03*
X157250000Y-50160000D03*
X158750000Y-50160000D03*
X159250000Y-50160000D03*
X159750000Y-50160000D03*
D13*
X164040000Y-47510000D03*
X155960000Y-47510000D03*
D15*
X123400000Y-192650000D03*
D16*
X123400000Y-186550000D03*
D22*
X148000000Y-329000000D03*
D14*
X154000000Y-43500000D03*
X154000000Y-330000000D03*
X166000000Y-330000000D03*
D12*
X159750000Y-316170000D03*
X159250000Y-316170000D03*
X158750000Y-316170000D03*
X158250000Y-316170000D03*
X157750000Y-316170000D03*
X157250000Y-316170000D03*
X156750000Y-316170000D03*
X163250000Y-316170000D03*
X161750000Y-316170000D03*
X162250000Y-316170000D03*
X162750000Y-316170000D03*
X161250000Y-316170000D03*
X160750000Y-316170000D03*
X160250000Y-316170000D03*
D13*
X155960000Y-318820000D03*
X164040000Y-318820000D03*
D23*
X198800000Y-183125000D03*
X198800000Y-183775000D03*
X198800000Y-182475000D03*
X198800000Y-181825000D03*
X194400000Y-183775000D03*
X194400000Y-183125000D03*
X194400000Y-182475000D03*
X194400000Y-181825000D03*
D24*
X134314998Y-330750000D03*
X133664998Y-330750000D03*
X134964998Y-330750000D03*
X135614998Y-330750000D03*
X133664998Y-326350000D03*
X134314998Y-326350000D03*
X134964998Y-326350000D03*
X135614998Y-326350000D03*
D23*
X121200000Y-74275000D03*
X121200000Y-73625000D03*
X121200000Y-74925000D03*
X121200000Y-75575000D03*
X125600000Y-73625000D03*
X125600000Y-74275000D03*
X125600000Y-74925000D03*
X125600000Y-75575000D03*
X125600000Y-183325000D03*
X125600000Y-183975000D03*
X125600000Y-182675000D03*
X125600000Y-182025000D03*
X121200000Y-183975000D03*
X121200000Y-183325000D03*
X121200000Y-182675000D03*
X121200000Y-182025000D03*
X194050000Y-74525000D03*
X194050000Y-73875000D03*
X194050000Y-75175000D03*
X194050000Y-75825000D03*
X198450000Y-73875000D03*
X198450000Y-74525000D03*
X198450000Y-75175000D03*
X198450000Y-75825000D03*
D24*
X188025000Y-326400000D03*
X188675000Y-326400000D03*
X187375000Y-326400000D03*
X186725000Y-326400000D03*
X188675000Y-330800000D03*
X188025000Y-330800000D03*
X187375000Y-330800000D03*
X186725000Y-330800000D03*
M02*
