M48
;DRILL file {KiCad 4.0.7-e2-6376~58~ubuntu16.04.1} date Sun Jun  3 17:42:35 2018
;FORMAT={-:-/ absolute / inch / decimal}
FMAT,2
INCH,TZ
T1C0.016
T2C0.079
%
G90
G05
M72
T1
X4.7717Y-3.0079
X4.7717Y-7.0315
X4.8189Y-7.2205
X4.8583Y-7.6535
X4.937Y-2.5591
X4.9449Y-3.126
X4.9449Y-7.1339
X5.0236Y-2.9213
X5.0551Y-12.8425
X5.2874Y-12.7874
X5.2874Y-12.9016
X5.3874Y-13.0217
X5.4331Y-2.937
X5.4331Y-7.2047
X5.4567Y-10.5551
X5.4705Y-10.4843
X5.4764Y-12.8543
X5.4876Y-11.3792
X5.4882Y-10.5236
X5.4882Y-11.4449
X5.5906Y-12.8976
X6.0866Y-1.874
X6.0972Y-12.5541
X6.1024Y-12.3858
X6.1181Y-12.4882
X6.1535Y-12.1811
X6.1575Y-12.1417
X6.1811Y-12.4961
X6.189Y-2.0157
X6.2047Y-12.1535
X6.2126Y-12.5197
X6.2164Y-12.1143
X6.2244Y-12.0709
X6.2992Y-2.0236
X6.2992Y-12.2283
X6.2992Y-12.3228
X6.2992Y-12.3937
X6.3307Y-12.1457
X6.3858Y-12.5118
X6.4016Y-12.2362
X6.4094Y-2.0157
X6.4173Y-12.4961
X6.4646Y-12.2835
X6.4803Y-12.5039
X6.4882Y-12.5906
X6.4961Y-12.3937
X6.5276Y-1.874
X7.Y-12.8425
X7.2244Y-13.0157
X7.311Y-12.8504
X7.3465Y-7.185
X7.3583Y-3.7165
X7.3937Y-12.9567
X7.5591Y-7.2126
X7.563Y-3.5197
X7.5669Y-12.8425
X7.5827Y-7.1811
X7.6398Y-3.0256
X7.6476Y-2.5689
X7.6614Y-7.0236
X7.7323Y-2.937
X7.7402Y-7.6535
X7.8051Y-3.1201
X7.8268Y-7.1181
T2
X4.8425Y-1.6535
X4.8425Y-5.6693
X4.8425Y-9.2913
X4.8425Y-12.9134
X6.2992Y-2.5591
X6.2992Y-5.6693
X6.2992Y-9.3307
X6.2992Y-12.0079
X7.7559Y-1.6535
X7.7559Y-5.6693
X7.7559Y-9.2913
X7.7559Y-12.9134
T0
M30
